# Blender v3.0.0 OBJ File: ''
# www.blender.org
mtllib box.mtl
o Cube
v 0.940000 0.940000 -1.000000
v 0.940000 1.000000 -0.940000
v 1.000000 0.940000 -0.940000
v 0.940000 0.982426 -0.982426
v 0.974641 0.974641 -0.974641
v 0.982426 0.982426 -0.940000
v 0.982426 0.940000 -0.982426
v 0.940000 -1.000000 -0.940000
v 0.940000 -0.940000 -1.000000
v 1.000000 -0.940000 -0.940000
v 0.940000 -0.982426 -0.982426
v 0.974641 -0.974641 -0.974641
v 0.982426 -0.940000 -0.982426
v 0.982426 -0.982426 -0.940000
v 1.000000 0.940000 0.940000
v 0.940000 1.000000 0.940000
v 0.940000 0.940000 1.000000
v 0.982426 0.982426 0.940000
v 0.974641 0.974641 0.974641
v 0.940000 0.982426 0.982426
v 0.982426 0.940000 0.982426
v 1.000000 -0.940000 0.940000
v 0.940000 -0.940000 1.000000
v 0.940000 -1.000000 0.940000
v 0.982426 -0.940000 0.982426
v 0.974641 -0.974641 0.974641
v 0.940000 -0.982426 0.982426
v 0.982426 -0.982426 0.940000
v -0.940000 0.940000 -1.000000
v -1.000000 0.940000 -0.940000
v -0.940000 1.000000 -0.940000
v -0.982426 0.940000 -0.982426
v -0.974641 0.974641 -0.974641
v -0.982426 0.982426 -0.940000
v -0.940000 0.982426 -0.982426
v -1.000000 -0.940000 -0.940000
v -0.940000 -0.940000 -1.000000
v -0.940000 -1.000000 -0.940000
v -0.982426 -0.940000 -0.982426
v -0.974641 -0.974641 -0.974641
v -0.940000 -0.982426 -0.982426
v -0.982426 -0.982426 -0.940000
v -1.000000 0.940000 0.940000
v -0.940000 0.940000 1.000000
v -0.940000 1.000000 0.940000
v -0.982426 0.940000 0.982426
v -0.974641 0.974641 0.974641
v -0.940000 0.982426 0.982426
v -0.982426 0.982426 0.940000
v -0.940000 -1.000000 0.940000
v -0.940000 -0.940000 1.000000
v -1.000000 -0.940000 0.940000
v -0.940000 -0.982426 0.982426
v -0.974641 -0.974641 0.974641
v -0.982426 -0.940000 0.982426
v -0.982426 -0.982426 0.940000
vn -0.1794 -0.9673 -0.1794
vn 0.1794 -0.9673 -0.1794
vn 0.1794 -0.9673 0.1794
vn -0.1794 -0.9673 0.1794
vn -0.9673 -0.1794 0.1794
vn -0.9673 0.1794 0.1794
vn -0.9673 0.1794 -0.1794
vn -0.9673 -0.1794 -0.1794
vn 0.1794 -0.1794 0.9673
vn 0.1794 0.1794 0.9673
vn -0.1794 0.1794 0.9673
vn -0.1794 -0.1794 0.9673
vn 0.1794 0.9673 -0.1794
vn -0.1794 0.9673 -0.1794
vn -0.1794 0.9673 0.1794
vn 0.1794 0.9673 0.1794
vn 0.9673 -0.1794 -0.1794
vn 0.9673 0.1794 -0.1794
vn 0.9673 0.1794 0.1794
vn 0.9673 -0.1794 0.1794
vn 0.1794 0.1794 -0.9673
vn 0.1726 0.6965 -0.6965
vn 0.5773 0.5773 -0.5773
vn 0.6965 0.1726 -0.6965
vn 0.6965 0.6965 -0.1726
vn 0.1726 -0.6965 -0.6965
vn 0.5773 -0.5773 -0.5773
vn 0.6965 -0.6965 -0.1726
vn 0.1794 -0.1794 -0.9673
vn 0.6965 -0.1726 -0.6965
vn 0.6965 0.6965 0.1726
vn 0.5773 0.5773 0.5773
vn 0.6965 0.1726 0.6965
vn 0.1726 0.6965 0.6965
vn 0.6965 -0.1726 0.6965
vn 0.5773 -0.5773 0.5773
vn 0.6965 -0.6965 0.1726
vn 0.1726 -0.6965 0.6965
vn -0.1794 0.1794 -0.9673
vn -0.6965 0.1726 -0.6965
vn -0.5773 0.5773 -0.5773
vn -0.1726 0.6965 -0.6965
vn -0.6965 0.6965 -0.1726
vn -0.6965 -0.1726 -0.6965
vn -0.5773 -0.5773 -0.5773
vn -0.6965 -0.6965 -0.1726
vn -0.1794 -0.1794 -0.9673
vn -0.1726 -0.6965 -0.6965
vn -0.6965 0.1726 0.6965
vn -0.5773 0.5773 0.5773
vn -0.6965 0.6965 0.1726
vn -0.1726 0.6965 0.6965
vn -0.1726 -0.6965 0.6965
vn -0.5773 -0.5773 0.5773
vn -0.6965 -0.6965 0.1726
vn -0.6965 -0.1726 0.6965
usemtl Material
s 1
f 38//1 8//2 24//3 50//4
f 52//5 43//6 30//7 36//8
f 23//9 17//10 44//11 51//12
f 2//13 31//14 45//15 16//16
f 10//17 3//18 15//19 22//20
f 1//21 4//22 5//23 7//24
f 2//13 6//25 5//23 4//22
f 3//18 7//24 5//23 6//25
f 8//2 11//26 12//27 14//28
f 9//29 13//30 12//27 11//26
f 10//17 14//28 12//27 13//30
f 15//19 18//31 19//32 21//33
f 16//16 20//34 19//32 18//31
f 17//10 21//33 19//32 20//34
f 22//20 25//35 26//36 28//37
f 23//9 27//38 26//36 25//35
f 24//3 28//37 26//36 27//38
f 29//39 32//40 33//41 35//42
f 30//7 34//43 33//41 32//40
f 31//14 35//42 33//41 34//43
f 36//8 39//44 40//45 42//46
f 37//47 41//48 40//45 39//44
f 38//1 42//46 40//45 41//48
f 43//6 46//49 47//50 49//51
f 44//11 48//52 47//50 46//49
f 45//15 49//51 47//50 48//52
f 50//4 53//53 54//54 56//55
f 51//12 55//56 54//54 53//53
f 52//5 56//55 54//54 55//56
f 38//1 50//4 56//55 42//46
f 42//46 56//55 52//5 36//8
f 8//2 38//1 41//48 11//26
f 11//26 41//48 37//47 9//29
f 3//18 10//17 13//30 7//24
f 7//24 13//30 9//29 1//21
f 51//12 44//11 46//49 55//56
f 55//56 46//49 43//6 52//5
f 17//10 23//9 25//35 21//33
f 21//33 25//35 22//20 15//19
f 29//39 37//47 39//44 32//40
f 32//40 39//44 36//8 30//7
f 16//16 45//15 48//52 20//34
f 20//34 48//52 44//11 17//10
f 2//13 16//16 18//31 6//25
f 6//25 18//31 15//19 3//18
f 50//4 24//3 27//38 53//53
f 53//53 27//38 23//9 51//12
f 45//15 31//14 34//43 49//51
f 49//51 34//43 30//7 43//6
f 31//14 2//13 4//22 35//42
f 35//42 4//22 1//21 29//39
f 24//3 8//2 14//28 28//37
f 28//37 14//28 10//17 22//20
f 37//47 29//39 1//21 9//29
